<?xml version="1.0" standalone="no"?>
<!DOCTYPE svg PUBLIC "-//W3C//DTD SVG 20010904//EN"
 "http://www.w3.org/TR/2001/REC-SVG-20010904/DTD/svg10.dtd">
<svg version="1.0" xmlns="http://www.w3.org/2000/svg"
 width="16.000000pt" height="16.000000pt" viewBox="0 0 16.000000 16.000000"
 preserveAspectRatio="xMidYMid meet">
<metadata>
Created by potrace 1.11, written by Peter Selinger 2001-2013
</metadata>
<g transform="translate(0.000000,16.000000) scale(0.002286,-0.002286)"
fill="#000000" stroke="none">
<path d="M3894 6936 c-2 -6 -3 -755 -2 -1665 l3 -1653 405 -173 c223 -95 419
-179 435 -185 17 -7 48 -21 70 -31 22 -9 132 -56 245 -104 113 -48 219 -93
235 -100 17 -8 91 -39 165 -70 74 -32 149 -63 165 -70 53 -24 715 -306 743
-316 15 -6 40 -17 57 -24 66 -31 337 -145 344 -145 12 0 79 236 110 385 74
358 96 793 55 1097 -2 18 -6 51 -9 73 -43 395 -203 884 -409 1245 -14 25 -35
63 -47 85 -12 22 -36 60 -53 85 -17 25 -35 53 -41 62 -29 48 -94 137 -171 234
-309 387 -674 688 -1109 915 -323 168 -724 299 -1060 345 -22 4 -59 10 -83 14
-30 5 -45 4 -48 -4z"/>
<path d="M3039 6926 c-2 -2 -26 -6 -54 -10 -43 -5 -96 -14 -181 -30 -11 -2
-38 -9 -60 -15 -21 -5 -86 -22 -144 -37 -102 -25 -274 -84 -415 -140 -92 -36
-355 -168 -422 -211 -28 -18 -54 -33 -57 -33 -6 0 -216 -139 -232 -155 -7 -5
-24 -19 -40 -30 -15 -11 -64 -49 -108 -85 -368 -298 -679 -684 -895 -1109
-136 -268 -230 -528 -296 -821 -23 -101 -22 -99 -30 -161 -4 -30 -9 -57 -11
-60 -1 -3 -6 -34 -9 -70 -4 -35 -8 -70 -11 -77 -6 -20 -18 -273 -18 -377 1
-101 13 -342 19 -376 3 -12 7 -45 11 -73 14 -117 23 -167 55 -311 30 -131 57
-232 86 -315 39 -115 66 -188 79 -217 8 -17 14 -34 14 -38 0 -13 133 -282 182
-369 120 -209 266 -414 429 -600 60 -68 221 -227 299 -295 137 -119 194 -163
325 -253 272 -186 577 -336 888 -437 111 -36 286 -82 362 -95 17 -3 41 -8 55
-11 36 -7 69 -13 120 -20 25 -4 61 -9 80 -12 243 -37 682 -34 930 8 30 5 73
11 95 14 22 4 47 8 55 10 8 2 29 7 45 10 24 4 246 60 316 79 276 76 698 282
966 470 248 175 479 385 663 605 25 29 50 58 55 65 64 71 246 339 237 347 -4
4 -95 44 -202 89 -107 45 -208 88 -225 95 -36 16 -67 29 -905 385 -366 155
-678 288 -695 296 -16 7 -138 59 -270 114 -132 56 -403 171 -601 256 -199 84
-373 158 -388 164 l-26 10 0 1915 0 1915 -33 0 c-19 0 -36 -2 -38 -4z"/>
</g>
</svg>
